
<region>
sample=..\Samples\babyblue\reg\babyblue_b1_f_rr4.wav
lokey=31
hikey=31
seq_length=8
seq_position=8
pitch_keycenter=35

<region>
sample=..\Samples\babyblue\reg\babyblue_b1_f_rr3.wav
lokey=31
hikey=31
seq_length=8
seq_position=7
pitch_keycenter=35

<region>
sample=..\Samples\babyblue\reg\babyblue_b1_f_rr2.wav
lokey=31
hikey=31
seq_length=8
seq_position=6
pitch_keycenter=35

<region>
sample=..\Samples\babyblue\reg\babyblue_b1_f_rr1.wav
lokey=31
hikey=31
seq_length=8
seq_position=5
pitch_keycenter=35

<region>
sample=..\Samples\babyblue\reg\babyblue_b1_f_rr4.wav
lokey=31
hikey=31
seq_length=8
seq_position=4
pitch_keycenter=35

<region>
sample=..\Samples\babyblue\reg\babyblue_b1_f_rr3.wav
lokey=31
hikey=31
seq_length=8
seq_position=3
pitch_keycenter=35

<region>
sample=..\Samples\babyblue\reg\babyblue_b1_f_rr2.wav
lokey=31
hikey=31
seq_length=8
seq_position=2
pitch_keycenter=35

<region>
sample=..\Samples\babyblue\reg\babyblue_b1_f_rr1.wav
lokey=31
hikey=31
seq_length=8
pitch_keycenter=35

<region>
sample=..\Samples\babyblue\reg\babyblue_c2_f_rr4.wav
lokey=32
hikey=32
seq_length=8
seq_position=8
pitch_keycenter=36

<region>
sample=..\Samples\babyblue\reg\babyblue_c2_f_rr3.wav
lokey=32
hikey=32
seq_length=8
seq_position=7
pitch_keycenter=36

<region>
sample=..\Samples\babyblue\reg\babyblue_c2_f_rr2.wav
lokey=32
hikey=32
seq_length=8
seq_position=6
pitch_keycenter=36

<region>
sample=..\Samples\babyblue\reg\babyblue_c2_f_rr1.wav
lokey=32
hikey=32
seq_length=8
seq_position=5
pitch_keycenter=36

<region>
sample=..\Samples\babyblue\reg\babyblue_c2_f_rr4.wav
lokey=32
hikey=32
seq_length=8
seq_position=4
pitch_keycenter=36

<region>
sample=..\Samples\babyblue\reg\babyblue_c2_f_rr3.wav
lokey=32
hikey=32
seq_length=8
seq_position=3
pitch_keycenter=36

<region>
sample=..\Samples\babyblue\reg\babyblue_c2_f_rr2.wav
lokey=32
hikey=32
seq_length=8
seq_position=2
pitch_keycenter=36

<region>
sample=..\Samples\babyblue\reg\babyblue_c2_f_rr1.wav
lokey=32
hikey=32
seq_length=8
pitch_keycenter=36

<region>
sample=..\Samples\babyblue\reg\babyblue_db2_f_rr4.wav
lokey=33
hikey=33
seq_length=8
seq_position=8
pitch_keycenter=37

<region>
sample=..\Samples\babyblue\reg\babyblue_db2_f_rr3.wav
lokey=33
hikey=33
seq_length=8
seq_position=7
pitch_keycenter=37

<region>
sample=..\Samples\babyblue\reg\babyblue_db2_f_rr2.wav
lokey=33
hikey=33
seq_length=8
seq_position=6
pitch_keycenter=37

<region>
sample=..\Samples\babyblue\reg\babyblue_db2_f_rr1.wav
lokey=33
hikey=33
seq_length=8
seq_position=5
pitch_keycenter=37

<region>
sample=..\Samples\babyblue\reg\babyblue_db2_f_rr4.wav
lokey=33
hikey=33
seq_length=8
seq_position=4
pitch_keycenter=37

<region>
sample=..\Samples\babyblue\reg\babyblue_db2_f_rr3.wav
lokey=33
hikey=33
seq_length=8
seq_position=3
pitch_keycenter=37

<region>
sample=..\Samples\babyblue\reg\babyblue_db2_f_rr2.wav
lokey=33
hikey=33
seq_length=8
seq_position=2
pitch_keycenter=37

<region>
sample=..\Samples\babyblue\reg\babyblue_db2_f_rr1.wav
lokey=33
hikey=33
seq_length=8
pitch_keycenter=37

<region>
sample=..\Samples\babyblue\reg\babyblue_d2_f_rr4.wav
lokey=34
hikey=34
seq_length=8
seq_position=8
pitch_keycenter=38

<region>
sample=..\Samples\babyblue\reg\babyblue_d2_f_rr3.wav
lokey=34
hikey=34
seq_length=8
seq_position=7
pitch_keycenter=38

<region>
sample=..\Samples\babyblue\reg\babyblue_d2_f_rr2.wav
lokey=34
hikey=34
seq_length=8
seq_position=6
pitch_keycenter=38

<region>
sample=..\Samples\babyblue\reg\babyblue_d2_f_rr1.wav
lokey=34
hikey=34
seq_length=8
seq_position=5
pitch_keycenter=38

<region>
sample=..\Samples\babyblue\reg\babyblue_d2_f_rr4.wav
lokey=34
hikey=34
seq_length=8
seq_position=4
pitch_keycenter=38

<region>
sample=..\Samples\babyblue\reg\babyblue_d2_f_rr3.wav
lokey=34
hikey=34
seq_length=8
seq_position=3
pitch_keycenter=38

<region>
sample=..\Samples\babyblue\reg\babyblue_d2_f_rr2.wav
lokey=34
hikey=34
seq_length=8
seq_position=2
pitch_keycenter=38

<region>
sample=..\Samples\babyblue\reg\babyblue_d2_f_rr1.wav
lokey=34
hikey=34
seq_length=8
pitch_keycenter=38

<region>
sample=..\Samples\babyblue\reg\babyblue_eb2_f_rr4.wav
lokey=35
hikey=35
seq_length=8
seq_position=8
pitch_keycenter=39

<region>
sample=..\Samples\babyblue\reg\babyblue_eb2_f_rr3.wav
lokey=35
hikey=35
seq_length=8
seq_position=7
pitch_keycenter=39

<region>
sample=..\Samples\babyblue\reg\babyblue_eb2_f_rr2.wav
lokey=35
hikey=35
seq_length=8
seq_position=6
pitch_keycenter=39

<region>
sample=..\Samples\babyblue\reg\babyblue_eb2_f_rr1.wav
lokey=35
hikey=35
seq_length=8
seq_position=5
pitch_keycenter=39

<region>
sample=..\Samples\babyblue\reg\babyblue_eb2_f_rr4.wav
lokey=35
hikey=35
seq_length=8
seq_position=4
pitch_keycenter=39

<region>
sample=..\Samples\babyblue\reg\babyblue_eb2_f_rr3.wav
lokey=35
hikey=35
seq_length=8
seq_position=3
pitch_keycenter=39

<region>
sample=..\Samples\babyblue\reg\babyblue_eb2_f_rr2.wav
lokey=35
hikey=35
seq_length=8
seq_position=2
pitch_keycenter=39

<region>
sample=..\Samples\babyblue\reg\babyblue_eb2_f_rr1.wav
lokey=35
hikey=35
seq_length=8
pitch_keycenter=39

<region>
sample=..\Samples\babyblue\reg\babyblue_e2_f_rr4.wav
lokey=36
hikey=36
seq_length=8
seq_position=8
pitch_keycenter=40

<region>
sample=..\Samples\babyblue\reg\babyblue_e2_f_rr3.wav
lokey=36
hikey=36
seq_length=8
seq_position=7
pitch_keycenter=40

<region>
sample=..\Samples\babyblue\reg\babyblue_e2_f_rr2.wav
lokey=36
hikey=36
seq_length=8
seq_position=6
pitch_keycenter=40

<region>
sample=..\Samples\babyblue\reg\babyblue_e2_f_rr1.wav
lokey=36
hikey=36
seq_length=8
seq_position=5
pitch_keycenter=40

<region>
sample=..\Samples\babyblue\reg\babyblue_e2_f_rr4.wav
lokey=36
hikey=36
seq_length=8
seq_position=4
pitch_keycenter=40

<region>
sample=..\Samples\babyblue\reg\babyblue_e2_f_rr3.wav
lokey=36
hikey=36
seq_length=8
seq_position=3
pitch_keycenter=40

<region>
sample=..\Samples\babyblue\reg\babyblue_e2_f_rr2.wav
lokey=36
hikey=36
seq_length=8
seq_position=2
pitch_keycenter=40

<region>
sample=..\Samples\babyblue\reg\babyblue_e2_f_rr1.wav
lokey=36
hikey=36
seq_length=8
pitch_keycenter=40

<region>
sample=..\Samples\babyblue\reg\babyblue_f2_f_rr4.wav
lokey=37
hikey=37
seq_length=8
seq_position=8
pitch_keycenter=41

<region>
sample=..\Samples\babyblue\reg\babyblue_f2_f_rr3.wav
lokey=37
hikey=37
seq_length=8
seq_position=7
pitch_keycenter=41

<region>
sample=..\Samples\babyblue\reg\babyblue_f2_f_rr2.wav
lokey=37
hikey=37
seq_length=8
seq_position=6
pitch_keycenter=41

<region>
sample=..\Samples\babyblue\reg\babyblue_f2_f_rr1.wav
lokey=37
hikey=37
seq_length=8
seq_position=5
pitch_keycenter=41

<region>
sample=..\Samples\babyblue\reg\babyblue_f2_f_rr4.wav
lokey=37
hikey=37
seq_length=8
seq_position=4
pitch_keycenter=41

<region>
sample=..\Samples\babyblue\reg\babyblue_f2_f_rr3.wav
lokey=37
hikey=37
seq_length=8
seq_position=3
pitch_keycenter=41

<region>
sample=..\Samples\babyblue\reg\babyblue_f2_f_rr2.wav
lokey=37
hikey=37
seq_length=8
seq_position=2
pitch_keycenter=41

<region>
sample=..\Samples\babyblue\reg\babyblue_f2_f_rr1.wav
lokey=37
hikey=37
seq_length=8
pitch_keycenter=41

<region>
sample=..\Samples\babyblue\reg\babyblue_gb2_f_rr4.wav
lokey=38
hikey=38
seq_length=8
seq_position=8
pitch_keycenter=42

<region>
sample=..\Samples\babyblue\reg\babyblue_gb2_f_rr3.wav
lokey=38
hikey=38
seq_length=8
seq_position=7
pitch_keycenter=42

<region>
sample=..\Samples\babyblue\reg\babyblue_gb2_f_rr2.wav
lokey=38
hikey=38
seq_length=8
seq_position=6
pitch_keycenter=42

<region>
sample=..\Samples\babyblue\reg\babyblue_gb2_f_rr1.wav
lokey=38
hikey=38
seq_length=8
seq_position=5
pitch_keycenter=42

<region>
sample=..\Samples\babyblue\reg\babyblue_gb2_f_rr4.wav
lokey=38
hikey=38
seq_length=8
seq_position=4
pitch_keycenter=42

<region>
sample=..\Samples\babyblue\reg\babyblue_gb2_f_rr3.wav
lokey=38
hikey=38
seq_length=8
seq_position=3
pitch_keycenter=42

<region>
sample=..\Samples\babyblue\reg\babyblue_gb2_f_rr2.wav
lokey=38
hikey=38
seq_length=8
seq_position=2
pitch_keycenter=42

<region>
sample=..\Samples\babyblue\reg\babyblue_gb2_f_rr1.wav
lokey=38
hikey=38
seq_length=8
pitch_keycenter=42

<region>
sample=..\Samples\babyblue\reg\babyblue_g2_f_rr4.wav
lokey=39
hikey=39
seq_length=8
seq_position=8
pitch_keycenter=43

<region>
sample=..\Samples\babyblue\reg\babyblue_g2_f_rr3.wav
lokey=39
hikey=39
seq_length=8
seq_position=7
pitch_keycenter=43

<region>
sample=..\Samples\babyblue\reg\babyblue_g2_f_rr2.wav
lokey=39
hikey=39
seq_length=8
seq_position=6
pitch_keycenter=43

<region>
sample=..\Samples\babyblue\reg\babyblue_g2_f_rr1.wav
lokey=39
hikey=39
seq_length=8
seq_position=5
pitch_keycenter=43

<region>
sample=..\Samples\babyblue\reg\babyblue_g2_f_rr4.wav
lokey=39
hikey=39
seq_length=8
seq_position=4
pitch_keycenter=43

<region>
sample=..\Samples\babyblue\reg\babyblue_g2_f_rr3.wav
lokey=39
hikey=39
seq_length=8
seq_position=3
pitch_keycenter=43

<region>
sample=..\Samples\babyblue\reg\babyblue_g2_f_rr2.wav
lokey=39
hikey=39
seq_length=8
seq_position=2
pitch_keycenter=43

<region>
sample=..\Samples\babyblue\reg\babyblue_g2_f_rr1.wav
lokey=39
hikey=39
seq_length=8
pitch_keycenter=43

<region>
sample=..\Samples\babyblue\reg\babyblue_ab2_f_rr4.wav
lokey=40
hikey=40
seq_length=8
seq_position=8
pitch_keycenter=44

<region>
sample=..\Samples\babyblue\reg\babyblue_ab2_f_rr3.wav
lokey=40
hikey=40
seq_length=8
seq_position=7
pitch_keycenter=44

<region>
sample=..\Samples\babyblue\reg\babyblue_ab2_f_rr2.wav
lokey=40
hikey=40
seq_length=8
seq_position=6
pitch_keycenter=44

<region>
sample=..\Samples\babyblue\reg\babyblue_ab2_f_rr1.wav
lokey=40
hikey=40
seq_length=8
seq_position=5
pitch_keycenter=44

<region>
sample=..\Samples\babyblue\reg\babyblue_ab2_f_rr4.wav
lokey=40
hikey=40
seq_length=8
seq_position=4
pitch_keycenter=44

<region>
sample=..\Samples\babyblue\reg\babyblue_ab2_f_rr3.wav
lokey=40
hikey=40
seq_length=8
seq_position=3
pitch_keycenter=44

<region>
sample=..\Samples\babyblue\reg\babyblue_ab2_f_rr2.wav
lokey=40
hikey=40
seq_length=8
seq_position=2
pitch_keycenter=44

<region>
sample=..\Samples\babyblue\reg\babyblue_ab2_f_rr1.wav
lokey=40
hikey=40
seq_length=8
pitch_keycenter=44

<region>
sample=..\Samples\babyblue\reg\babyblue_a2_f_rr4.wav
lokey=41
hikey=41
seq_length=8
seq_position=8
pitch_keycenter=45

<region>
sample=..\Samples\babyblue\reg\babyblue_a2_f_rr3.wav
lokey=41
hikey=41
seq_length=8
seq_position=7
pitch_keycenter=45

<region>
sample=..\Samples\babyblue\reg\babyblue_a2_f_rr2.wav
lokey=41
hikey=41
seq_length=8
seq_position=6
pitch_keycenter=45

<region>
sample=..\Samples\babyblue\reg\babyblue_a2_f_rr1.wav
lokey=41
hikey=41
seq_length=8
seq_position=5
pitch_keycenter=45

<region>
sample=..\Samples\babyblue\reg\babyblue_a2_f_rr4.wav
lokey=41
hikey=41
seq_length=8
seq_position=4
pitch_keycenter=45

<region>
sample=..\Samples\babyblue\reg\babyblue_a2_f_rr3.wav
lokey=41
hikey=41
seq_length=8
seq_position=3
pitch_keycenter=45

<region>
sample=..\Samples\babyblue\reg\babyblue_a2_f_rr2.wav
lokey=41
hikey=41
seq_length=8
seq_position=2
pitch_keycenter=45

<region>
sample=..\Samples\babyblue\reg\babyblue_a2_f_rr1.wav
lokey=41
hikey=41
seq_length=8
pitch_keycenter=45

<region>
sample=..\Samples\babyblue\reg\babyblue_bb2_f_rr4.wav
lokey=42
hikey=42
seq_length=8
seq_position=8
pitch_keycenter=46

<region>
sample=..\Samples\babyblue\reg\babyblue_bb2_f_rr3.wav
lokey=42
hikey=42
seq_length=8
seq_position=7
pitch_keycenter=46

<region>
sample=..\Samples\babyblue\reg\babyblue_bb2_f_rr2.wav
lokey=42
hikey=42
seq_length=8
seq_position=6
pitch_keycenter=46

<region>
sample=..\Samples\babyblue\reg\babyblue_bb2_f_rr1.wav
lokey=42
hikey=42
seq_length=8
seq_position=5
pitch_keycenter=46

<region>
sample=..\Samples\babyblue\reg\babyblue_bb2_f_rr4.wav
lokey=42
hikey=42
seq_length=8
seq_position=4
pitch_keycenter=46

<region>
sample=..\Samples\babyblue\reg\babyblue_bb2_f_rr3.wav
lokey=42
hikey=42
seq_length=8
seq_position=3
pitch_keycenter=46

<region>
sample=..\Samples\babyblue\reg\babyblue_bb2_f_rr2.wav
lokey=42
hikey=42
seq_length=8
seq_position=2
pitch_keycenter=46

<region>
sample=..\Samples\babyblue\reg\babyblue_bb2_f_rr1.wav
lokey=42
hikey=42
seq_length=8
pitch_keycenter=46

<region>
sample=..\Samples\babyblue\reg\babyblue_b2_f_rr4.wav
lokey=43
hikey=43
seq_length=8
seq_position=8
pitch_keycenter=47

<region>
sample=..\Samples\babyblue\reg\babyblue_b2_f_rr3.wav
lokey=43
hikey=43
seq_length=8
seq_position=7
pitch_keycenter=47

<region>
sample=..\Samples\babyblue\reg\babyblue_b2_f_rr2.wav
lokey=43
hikey=43
seq_length=8
seq_position=6
pitch_keycenter=47

<region>
sample=..\Samples\babyblue\reg\babyblue_b2_f_rr1.wav
lokey=43
hikey=43
seq_length=8
seq_position=5
pitch_keycenter=47

<region>
sample=..\Samples\babyblue\reg\babyblue_b2_f_rr4.wav
lokey=43
hikey=43
seq_length=8
seq_position=4
pitch_keycenter=47

<region>
sample=..\Samples\babyblue\reg\babyblue_b2_f_rr3.wav
lokey=43
hikey=43
seq_length=8
seq_position=3
pitch_keycenter=47

<region>
sample=..\Samples\babyblue\reg\babyblue_b2_f_rr2.wav
lokey=43
hikey=43
seq_length=8
seq_position=2
pitch_keycenter=47

<region>
sample=..\Samples\babyblue\reg\babyblue_b2_f_rr1.wav
lokey=43
hikey=43
seq_length=8
pitch_keycenter=47

<region>
sample=..\Samples\babyblue\reg\babyblue_c3_f_rr4.wav
lokey=44
hikey=44
seq_length=8
seq_position=8
pitch_keycenter=48

<region>
sample=..\Samples\babyblue\reg\babyblue_c3_f_rr3.wav
lokey=44
hikey=44
seq_length=8
seq_position=7
pitch_keycenter=48

<region>
sample=..\Samples\babyblue\reg\babyblue_c3_f_rr2.wav
lokey=44
hikey=44
seq_length=8
seq_position=6
pitch_keycenter=48

<region>
sample=..\Samples\babyblue\reg\babyblue_c3_f_rr1.wav
lokey=44
hikey=44
seq_length=8
seq_position=5
pitch_keycenter=48

<region>
sample=..\Samples\babyblue\reg\babyblue_c3_f_rr4.wav
lokey=44
hikey=44
seq_length=8
seq_position=4
pitch_keycenter=48

<region>
sample=..\Samples\babyblue\reg\babyblue_c3_f_rr3.wav
lokey=44
hikey=44
seq_length=8
seq_position=3
pitch_keycenter=48

<region>
sample=..\Samples\babyblue\reg\babyblue_c3_f_rr2.wav
lokey=44
hikey=44
seq_length=8
seq_position=2
pitch_keycenter=48

<region>
sample=..\Samples\babyblue\reg\babyblue_c3_f_rr1.wav
lokey=44
hikey=44
seq_length=8
pitch_keycenter=48

<region>
sample=..\Samples\babyblue\reg\babyblue_db3_f_rr4.wav
lokey=45
hikey=45
seq_length=8
seq_position=8
pitch_keycenter=49

<region>
sample=..\Samples\babyblue\reg\babyblue_db3_f_rr3.wav
lokey=45
hikey=45
seq_length=8
seq_position=7
pitch_keycenter=49

<region>
sample=..\Samples\babyblue\reg\babyblue_db3_f_rr2.wav
lokey=45
hikey=45
seq_length=8
seq_position=6
pitch_keycenter=49

<region>
sample=..\Samples\babyblue\reg\babyblue_db3_f_rr1.wav
lokey=45
hikey=45
seq_length=8
seq_position=5
pitch_keycenter=49

<region>
sample=..\Samples\babyblue\reg\babyblue_db3_f_rr4.wav
lokey=45
hikey=45
seq_length=8
seq_position=4
pitch_keycenter=49

<region>
sample=..\Samples\babyblue\reg\babyblue_db3_f_rr3.wav
lokey=45
hikey=45
seq_length=8
seq_position=3
pitch_keycenter=49

<region>
sample=..\Samples\babyblue\reg\babyblue_db3_f_rr2.wav
lokey=45
hikey=45
seq_length=8
seq_position=2
pitch_keycenter=49

<region>
sample=..\Samples\babyblue\reg\babyblue_db3_f_rr1.wav
lokey=45
hikey=45
seq_length=8
pitch_keycenter=49

<region>
sample=..\Samples\babyblue\reg\babyblue_d3_f_rr4.wav
lokey=46
hikey=46
seq_length=8
seq_position=8
pitch_keycenter=50

<region>
sample=..\Samples\babyblue\reg\babyblue_d3_f_rr3.wav
lokey=46
hikey=46
seq_length=8
seq_position=7
pitch_keycenter=50

<region>
sample=..\Samples\babyblue\reg\babyblue_d3_f_rr2.wav
lokey=46
hikey=46
seq_length=8
seq_position=6
pitch_keycenter=50

<region>
sample=..\Samples\babyblue\reg\babyblue_d3_f_rr1.wav
lokey=46
hikey=46
seq_length=8
seq_position=5
pitch_keycenter=50

<region>
sample=..\Samples\babyblue\reg\babyblue_d3_f_rr4.wav
lokey=46
hikey=46
seq_length=8
seq_position=4
pitch_keycenter=50

<region>
sample=..\Samples\babyblue\reg\babyblue_d3_f_rr3.wav
lokey=46
hikey=46
seq_length=8
seq_position=3
pitch_keycenter=50

<region>
sample=..\Samples\babyblue\reg\babyblue_d3_f_rr2.wav
lokey=46
hikey=46
seq_length=8
seq_position=2
pitch_keycenter=50

<region>
sample=..\Samples\babyblue\reg\babyblue_d3_f_rr1.wav
lokey=46
hikey=46
seq_length=8
pitch_keycenter=50

<region>
sample=..\Samples\babyblue\reg\babyblue_eb3_f_rr4.wav
lokey=47
hikey=47
seq_length=8
seq_position=8
pitch_keycenter=51

<region>
sample=..\Samples\babyblue\reg\babyblue_eb3_f_rr3.wav
lokey=47
hikey=47
seq_length=8
seq_position=7
pitch_keycenter=51

<region>
sample=..\Samples\babyblue\reg\babyblue_eb3_f_rr2.wav
lokey=47
hikey=47
seq_length=8
seq_position=6
pitch_keycenter=51

<region>
sample=..\Samples\babyblue\reg\babyblue_eb3_f_rr1.wav
lokey=47
hikey=47
seq_length=8
seq_position=5
pitch_keycenter=51

<region>
sample=..\Samples\babyblue\reg\babyblue_eb3_f_rr4.wav
lokey=47
hikey=47
seq_length=8
seq_position=4
pitch_keycenter=51

<region>
sample=..\Samples\babyblue\reg\babyblue_eb3_f_rr3.wav
lokey=47
hikey=47
seq_length=8
seq_position=3
pitch_keycenter=51

<region>
sample=..\Samples\babyblue\reg\babyblue_eb3_f_rr2.wav
lokey=47
hikey=47
seq_length=8
seq_position=2
pitch_keycenter=51

<region>
sample=..\Samples\babyblue\reg\babyblue_eb3_f_rr1.wav
lokey=47
hikey=47
seq_length=8
pitch_keycenter=51

<region>
sample=..\Samples\babyblue\reg\babyblue_e3_f_rr4.wav
lokey=48
hikey=48
seq_length=8
seq_position=8
pitch_keycenter=52

<region>
sample=..\Samples\babyblue\reg\babyblue_e3_f_rr3.wav
lokey=48
hikey=48
seq_length=8
seq_position=7
pitch_keycenter=52

<region>
sample=..\Samples\babyblue\reg\babyblue_e3_f_rr2.wav
lokey=48
hikey=48
seq_length=8
seq_position=6
pitch_keycenter=52

<region>
sample=..\Samples\babyblue\reg\babyblue_e3_f_rr1.wav
lokey=48
hikey=48
seq_length=8
seq_position=5
pitch_keycenter=52

<region>
sample=..\Samples\babyblue\reg\babyblue_e3_f_rr4.wav
lokey=48
hikey=48
seq_length=8
seq_position=4
pitch_keycenter=52

<region>
sample=..\Samples\babyblue\reg\babyblue_e3_f_rr3.wav
lokey=48
hikey=48
seq_length=8
seq_position=3
pitch_keycenter=52

<region>
sample=..\Samples\babyblue\reg\babyblue_e3_f_rr2.wav
lokey=48
hikey=48
seq_length=8
seq_position=2
pitch_keycenter=52

<region>
sample=..\Samples\babyblue\reg\babyblue_e3_f_rr1.wav
lokey=48
hikey=48
seq_length=8
pitch_keycenter=52

<region>
sample=..\Samples\babyblue\reg\babyblue_f3_f_rr4.wav
lokey=49
hikey=49
seq_length=8
seq_position=8
pitch_keycenter=53

<region>
sample=..\Samples\babyblue\reg\babyblue_f3_f_rr3.wav
lokey=49
hikey=49
seq_length=8
seq_position=7
pitch_keycenter=53

<region>
sample=..\Samples\babyblue\reg\babyblue_f3_f_rr2.wav
lokey=49
hikey=49
seq_length=8
seq_position=6
pitch_keycenter=53

<region>
sample=..\Samples\babyblue\reg\babyblue_f3_f_rr1.wav
lokey=49
hikey=49
seq_length=8
seq_position=5
pitch_keycenter=53

<region>
sample=..\Samples\babyblue\reg\babyblue_f3_f_rr4.wav
lokey=49
hikey=49
seq_length=8
seq_position=4
pitch_keycenter=53

<region>
sample=..\Samples\babyblue\reg\babyblue_f3_f_rr3.wav
lokey=49
hikey=49
seq_length=8
seq_position=3
pitch_keycenter=53

<region>
sample=..\Samples\babyblue\reg\babyblue_f3_f_rr2.wav
lokey=49
hikey=49
seq_length=8
seq_position=2
pitch_keycenter=53

<region>
sample=..\Samples\babyblue\reg\babyblue_f3_f_rr1.wav
lokey=49
hikey=49
seq_length=8
pitch_keycenter=53

<region>
sample=..\Samples\babyblue\reg\babyblue_gb3_f_rr4.wav
lokey=50
hikey=50
seq_length=8
seq_position=8
pitch_keycenter=54

<region>
sample=..\Samples\babyblue\reg\babyblue_gb3_f_rr3.wav
lokey=50
hikey=50
seq_length=8
seq_position=7
pitch_keycenter=54

<region>
sample=..\Samples\babyblue\reg\babyblue_gb3_f_rr2.wav
lokey=50
hikey=50
seq_length=8
seq_position=6
pitch_keycenter=54

<region>
sample=..\Samples\babyblue\reg\babyblue_gb3_f_rr1.wav
lokey=50
hikey=50
seq_length=8
seq_position=5
pitch_keycenter=54

<region>
sample=..\Samples\babyblue\reg\babyblue_gb3_f_rr4.wav
lokey=50
hikey=50
seq_length=8
seq_position=4
pitch_keycenter=54

<region>
sample=..\Samples\babyblue\reg\babyblue_gb3_f_rr3.wav
lokey=50
hikey=50
seq_length=8
seq_position=3
pitch_keycenter=54

<region>
sample=..\Samples\babyblue\reg\babyblue_gb3_f_rr2.wav
lokey=50
hikey=50
seq_length=8
seq_position=2
pitch_keycenter=54

<region>
sample=..\Samples\babyblue\reg\babyblue_gb3_f_rr1.wav
lokey=50
hikey=50
seq_length=8
pitch_keycenter=54

<region>
sample=..\Samples\babyblue\reg\babyblue_g3_f_rr4.wav
lokey=51
hikey=51
seq_length=8
seq_position=8
pitch_keycenter=55

<region>
sample=..\Samples\babyblue\reg\babyblue_g3_f_rr3.wav
lokey=51
hikey=51
seq_length=8
seq_position=7
pitch_keycenter=55

<region>
sample=..\Samples\babyblue\reg\babyblue_g3_f_rr2.wav
lokey=51
hikey=51
seq_length=8
seq_position=6
pitch_keycenter=55

<region>
sample=..\Samples\babyblue\reg\babyblue_g3_f_rr1.wav
lokey=51
hikey=51
seq_length=8
seq_position=5
pitch_keycenter=55

<region>
sample=..\Samples\babyblue\reg\babyblue_g3_f_rr4.wav
lokey=51
hikey=51
seq_length=8
seq_position=4
pitch_keycenter=55

<region>
sample=..\Samples\babyblue\reg\babyblue_g3_f_rr3.wav
lokey=51
hikey=51
seq_length=8
seq_position=3
pitch_keycenter=55

<region>
sample=..\Samples\babyblue\reg\babyblue_g3_f_rr2.wav
lokey=51
hikey=51
seq_length=8
seq_position=2
pitch_keycenter=55

<region>
sample=..\Samples\babyblue\reg\babyblue_g3_f_rr1.wav
lokey=51
hikey=51
seq_length=8
pitch_keycenter=55

<region>
sample=..\Samples\babyblue\reg\babyblue_ab3_f_rr4.wav
lokey=52
hikey=52
seq_length=8
seq_position=8
pitch_keycenter=56

<region>
sample=..\Samples\babyblue\reg\babyblue_ab3_f_rr3.wav
lokey=52
hikey=52
seq_length=8
seq_position=7
pitch_keycenter=56

<region>
sample=..\Samples\babyblue\reg\babyblue_ab3_f_rr2.wav
lokey=52
hikey=52
seq_length=8
seq_position=6
pitch_keycenter=56

<region>
sample=..\Samples\babyblue\reg\babyblue_ab3_f_rr1.wav
lokey=52
hikey=52
seq_length=8
seq_position=5
pitch_keycenter=56

<region>
sample=..\Samples\babyblue\reg\babyblue_ab3_f_rr4.wav
lokey=52
hikey=52
seq_length=8
seq_position=4
pitch_keycenter=56

<region>
sample=..\Samples\babyblue\reg\babyblue_ab3_f_rr3.wav
lokey=52
hikey=52
seq_length=8
seq_position=3
pitch_keycenter=56

<region>
sample=..\Samples\babyblue\reg\babyblue_ab3_f_rr2.wav
lokey=52
hikey=52
seq_length=8
seq_position=2
pitch_keycenter=56

<region>
sample=..\Samples\babyblue\reg\babyblue_ab3_f_rr1.wav
lokey=52
hikey=52
seq_length=8
pitch_keycenter=56

<region>
sample=..\Samples\babyblue\reg\babyblue_a3_f_rr4.wav
lokey=53
hikey=53
seq_length=8
seq_position=8
pitch_keycenter=57

<region>
sample=..\Samples\babyblue\reg\babyblue_a3_f_rr3.wav
lokey=53
hikey=53
seq_length=8
seq_position=7
pitch_keycenter=57

<region>
sample=..\Samples\babyblue\reg\babyblue_a3_f_rr2.wav
lokey=53
hikey=53
seq_length=8
seq_position=6
pitch_keycenter=57

<region>
sample=..\Samples\babyblue\reg\babyblue_a3_f_rr1.wav
lokey=53
hikey=53
seq_length=8
seq_position=5
pitch_keycenter=57

<region>
sample=..\Samples\babyblue\reg\babyblue_a3_f_rr4.wav
lokey=53
hikey=53
seq_length=8
seq_position=4
pitch_keycenter=57

<region>
sample=..\Samples\babyblue\reg\babyblue_a3_f_rr3.wav
lokey=53
hikey=53
seq_length=8
seq_position=3
pitch_keycenter=57

<region>
sample=..\Samples\babyblue\reg\babyblue_a3_f_rr2.wav
lokey=53
hikey=53
seq_length=8
seq_position=2
pitch_keycenter=57

<region>
sample=..\Samples\babyblue\reg\babyblue_a3_f_rr1.wav
lokey=53
hikey=53
seq_length=8
pitch_keycenter=57

<region>
sample=..\Samples\babyblue\reg\babyblue_bb3_f_rr4.wav
lokey=54
hikey=54
seq_length=8
seq_position=8
pitch_keycenter=58

<region>
sample=..\Samples\babyblue\reg\babyblue_bb3_f_rr3.wav
lokey=54
hikey=54
seq_length=8
seq_position=7
pitch_keycenter=58

<region>
sample=..\Samples\babyblue\reg\babyblue_bb3_f_rr2.wav
lokey=54
hikey=54
seq_length=8
seq_position=6
pitch_keycenter=58

<region>
sample=..\Samples\babyblue\reg\babyblue_bb3_f_rr1.wav
lokey=54
hikey=54
seq_length=8
seq_position=5
pitch_keycenter=58

<region>
sample=..\Samples\babyblue\reg\babyblue_bb3_f_rr4.wav
lokey=54
hikey=54
seq_length=8
seq_position=4
pitch_keycenter=58

<region>
sample=..\Samples\babyblue\reg\babyblue_bb3_f_rr3.wav
lokey=54
hikey=54
seq_length=8
seq_position=3
pitch_keycenter=58

<region>
sample=..\Samples\babyblue\reg\babyblue_bb3_f_rr2.wav
lokey=54
hikey=54
seq_length=8
seq_position=2
pitch_keycenter=58

<region>
sample=..\Samples\babyblue\reg\babyblue_bb3_f_rr1.wav
lokey=54
hikey=54
seq_length=8
pitch_keycenter=58

<region>
sample=..\Samples\babyblue\reg\babyblue_b3_f_rr4.wav
lokey=55
hikey=55
seq_length=8
seq_position=8
pitch_keycenter=59

<region>
sample=..\Samples\babyblue\reg\babyblue_b3_f_rr3.wav
lokey=55
hikey=55
seq_length=8
seq_position=7
pitch_keycenter=59

<region>
sample=..\Samples\babyblue\reg\babyblue_b3_f_rr2.wav
lokey=55
hikey=55
seq_length=8
seq_position=6
pitch_keycenter=59

<region>
sample=..\Samples\babyblue\reg\babyblue_b3_f_rr1.wav
lokey=55
hikey=55
seq_length=8
seq_position=5
pitch_keycenter=59

<region>
sample=..\Samples\babyblue\reg\babyblue_b3_f_rr4.wav
lokey=55
hikey=55
seq_length=8
seq_position=4
pitch_keycenter=59

<region>
sample=..\Samples\babyblue\reg\babyblue_b3_f_rr3.wav
lokey=55
hikey=55
seq_length=8
seq_position=3
pitch_keycenter=59

<region>
sample=..\Samples\babyblue\reg\babyblue_b3_f_rr2.wav
lokey=55
hikey=55
seq_length=8
seq_position=2
pitch_keycenter=59

<region>
sample=..\Samples\babyblue\reg\babyblue_b3_f_rr1.wav
lokey=55
hikey=55
seq_length=8
pitch_keycenter=59

<region>
sample=..\Samples\babyblue\reg\babyblue_c4_f_rr4.wav
lokey=56
hikey=56
seq_length=8
seq_position=8

<region>
sample=..\Samples\babyblue\reg\babyblue_c4_f_rr3.wav
lokey=56
hikey=56
seq_length=8
seq_position=7

<region>
sample=..\Samples\babyblue\reg\babyblue_c4_f_rr2.wav
lokey=56
hikey=56
seq_length=8
seq_position=6

<region>
sample=..\Samples\babyblue\reg\babyblue_c4_f_rr1.wav
lokey=56
hikey=56
seq_length=8
seq_position=5

<region>
sample=..\Samples\babyblue\reg\babyblue_c4_f_rr4.wav
lokey=56
hikey=56
seq_length=8
seq_position=4

<region>
sample=..\Samples\babyblue\reg\babyblue_c4_f_rr3.wav
lokey=56
hikey=56
seq_length=8
seq_position=3

<region>
sample=..\Samples\babyblue\reg\babyblue_c4_f_rr2.wav
lokey=56
hikey=56
seq_length=8
seq_position=2

<region>
sample=..\Samples\babyblue\reg\babyblue_c4_f_rr1.wav
lokey=56
hikey=56
seq_length=8

<region>
sample=..\Samples\babyblue\reg\babyblue_db4_f_rr4.wav
lokey=57
hikey=57
seq_length=8
seq_position=8
pitch_keycenter=61

<region>
sample=..\Samples\babyblue\reg\babyblue_db4_f_rr3.wav
lokey=57
hikey=57
seq_length=8
seq_position=7
pitch_keycenter=61

<region>
sample=..\Samples\babyblue\reg\babyblue_db4_f_rr2.wav
lokey=57
hikey=57
seq_length=8
seq_position=6
pitch_keycenter=61

<region>
sample=..\Samples\babyblue\reg\babyblue_db4_f_rr1.wav
lokey=57
hikey=57
seq_length=8
seq_position=5
pitch_keycenter=61

<region>
sample=..\Samples\babyblue\reg\babyblue_db4_f_rr4.wav
lokey=57
hikey=57
seq_length=8
seq_position=4
pitch_keycenter=61

<region>
sample=..\Samples\babyblue\reg\babyblue_db4_f_rr3.wav
lokey=57
hikey=57
seq_length=8
seq_position=3
pitch_keycenter=61

<region>
sample=..\Samples\babyblue\reg\babyblue_db4_f_rr2.wav
lokey=57
hikey=57
seq_length=8
seq_position=2
pitch_keycenter=61

<region>
sample=..\Samples\babyblue\reg\babyblue_db4_f_rr1.wav
lokey=57
hikey=57
seq_length=8
pitch_keycenter=61

<region>
sample=..\Samples\babyblue\reg\babyblue_d4_f_rr4.wav
lokey=58
hikey=58
seq_length=8
seq_position=8
pitch_keycenter=62

<region>
sample=..\Samples\babyblue\reg\babyblue_d4_f_rr3.wav
lokey=58
hikey=58
seq_length=8
seq_position=7
pitch_keycenter=62

<region>
sample=..\Samples\babyblue\reg\babyblue_d4_f_rr2.wav
lokey=58
hikey=58
seq_length=8
seq_position=6
pitch_keycenter=62

<region>
sample=..\Samples\babyblue\reg\babyblue_d4_f_rr1.wav
lokey=58
hikey=58
seq_length=8
seq_position=5
pitch_keycenter=62

<region>
sample=..\Samples\babyblue\reg\babyblue_d4_f_rr4.wav
lokey=58
hikey=58
seq_length=8
seq_position=4
pitch_keycenter=62

<region>
sample=..\Samples\babyblue\reg\babyblue_d4_f_rr3.wav
lokey=58
hikey=58
seq_length=8
seq_position=3
pitch_keycenter=62

<region>
sample=..\Samples\babyblue\reg\babyblue_d4_f_rr2.wav
lokey=58
hikey=58
seq_length=8
seq_position=2
pitch_keycenter=62

<region>
sample=..\Samples\babyblue\reg\babyblue_d4_f_rr1.wav
lokey=58
hikey=58
seq_length=8
pitch_keycenter=62

<region>
sample=..\Samples\babyblue\reg\babyblue_eb4_f_rr4.wav
lokey=59
hikey=59
seq_length=8
seq_position=8
pitch_keycenter=63

<region>
sample=..\Samples\babyblue\reg\babyblue_eb4_f_rr3.wav
lokey=59
hikey=59
seq_length=8
seq_position=7
pitch_keycenter=63

<region>
sample=..\Samples\babyblue\reg\babyblue_eb4_f_rr2.wav
lokey=59
hikey=59
seq_length=8
seq_position=6
pitch_keycenter=63

<region>
sample=..\Samples\babyblue\reg\babyblue_eb4_f_rr1.wav
lokey=59
hikey=59
seq_length=8
seq_position=5
pitch_keycenter=63

<region>
sample=..\Samples\babyblue\reg\babyblue_eb4_f_rr4.wav
lokey=59
hikey=59
seq_length=8
seq_position=4
pitch_keycenter=63

<region>
sample=..\Samples\babyblue\reg\babyblue_eb4_f_rr3.wav
lokey=59
hikey=59
seq_length=8
seq_position=3
pitch_keycenter=63

<region>
sample=..\Samples\babyblue\reg\babyblue_eb4_f_rr2.wav
lokey=59
hikey=59
seq_length=8
seq_position=2
pitch_keycenter=63

<region>
sample=..\Samples\babyblue\reg\babyblue_eb4_f_rr1.wav
lokey=59
hikey=59
seq_length=8
pitch_keycenter=63

<region>
sample=..\Samples\babyblue\reg\babyblue_e4_f_rr4.wav
lokey=60
hikey=60
seq_length=8
seq_position=8
pitch_keycenter=64

<region>
sample=..\Samples\babyblue\reg\babyblue_e4_f_rr3.wav
lokey=60
hikey=60
seq_length=8
seq_position=7
pitch_keycenter=64

<region>
sample=..\Samples\babyblue\reg\babyblue_e4_f_rr2.wav
lokey=60
hikey=60
seq_length=8
seq_position=6
pitch_keycenter=64

<region>
sample=..\Samples\babyblue\reg\babyblue_e4_f_rr1.wav
lokey=60
hikey=60
seq_length=8
seq_position=5
pitch_keycenter=64

<region>
sample=..\Samples\babyblue\reg\babyblue_e4_f_rr4.wav
lokey=60
hikey=60
seq_length=8
seq_position=4
pitch_keycenter=64

<region>
sample=..\Samples\babyblue\reg\babyblue_e4_f_rr3.wav
lokey=60
hikey=60
seq_length=8
seq_position=3
pitch_keycenter=64

<region>
sample=..\Samples\babyblue\reg\babyblue_e4_f_rr2.wav
lokey=60
hikey=60
seq_length=8
seq_position=2
pitch_keycenter=64

<region>
sample=..\Samples\babyblue\reg\babyblue_e4_f_rr1.wav
lokey=60
hikey=60
seq_length=8
pitch_keycenter=64

<region>
sample=..\Samples\babyblue\reg\babyblue_f4_f_rr4.wav
lokey=61
hikey=61
seq_length=8
seq_position=8
pitch_keycenter=65

<region>
sample=..\Samples\babyblue\reg\babyblue_f4_f_rr3.wav
lokey=61
hikey=61
seq_length=8
seq_position=7
pitch_keycenter=65

<region>
sample=..\Samples\babyblue\reg\babyblue_f4_f_rr2.wav
lokey=61
hikey=61
seq_length=8
seq_position=6
pitch_keycenter=65

<region>
sample=..\Samples\babyblue\reg\babyblue_f4_f_rr1.wav
lokey=61
hikey=61
seq_length=8
seq_position=5
pitch_keycenter=65

<region>
sample=..\Samples\babyblue\reg\babyblue_f4_f_rr4.wav
lokey=61
hikey=61
seq_length=8
seq_position=4
pitch_keycenter=65

<region>
sample=..\Samples\babyblue\reg\babyblue_f4_f_rr3.wav
lokey=61
hikey=61
seq_length=8
seq_position=3
pitch_keycenter=65

<region>
sample=..\Samples\babyblue\reg\babyblue_f4_f_rr2.wav
lokey=61
hikey=61
seq_length=8
seq_position=2
pitch_keycenter=65

<region>
sample=..\Samples\babyblue\reg\babyblue_f4_f_rr1.wav
lokey=61
hikey=61
seq_length=8
pitch_keycenter=65

<region>
sample=..\Samples\babyblue\reg\babyblue_gb4_f_rr4.wav
lokey=62
hikey=62
seq_length=8
seq_position=8
pitch_keycenter=66

<region>
sample=..\Samples\babyblue\reg\babyblue_gb4_f_rr3.wav
lokey=62
hikey=62
seq_length=8
seq_position=7
pitch_keycenter=66

<region>
sample=..\Samples\babyblue\reg\babyblue_gb4_f_rr2.wav
lokey=62
hikey=62
seq_length=8
seq_position=6
pitch_keycenter=66

<region>
sample=..\Samples\babyblue\reg\babyblue_gb4_f_rr1.wav
lokey=62
hikey=62
seq_length=8
seq_position=5
pitch_keycenter=66

<region>
sample=..\Samples\babyblue\reg\babyblue_gb4_f_rr4.wav
lokey=62
hikey=62
seq_length=8
seq_position=4
pitch_keycenter=66

<region>
sample=..\Samples\babyblue\reg\babyblue_gb4_f_rr3.wav
lokey=62
hikey=62
seq_length=8
seq_position=3
pitch_keycenter=66

<region>
sample=..\Samples\babyblue\reg\babyblue_gb4_f_rr2.wav
lokey=62
hikey=62
seq_length=8
seq_position=2
pitch_keycenter=66

<region>
sample=..\Samples\babyblue\reg\babyblue_gb4_f_rr1.wav
lokey=62
hikey=62
seq_length=8
pitch_keycenter=66

<region>
sample=..\Samples\babyblue\reg\babyblue_g4_f_rr4.wav
lokey=63
hikey=63
seq_length=8
seq_position=8
pitch_keycenter=67

<region>
sample=..\Samples\babyblue\reg\babyblue_g4_f_rr3.wav
lokey=63
hikey=63
seq_length=8
seq_position=7
pitch_keycenter=67

<region>
sample=..\Samples\babyblue\reg\babyblue_g4_f_rr2.wav
lokey=63
hikey=63
seq_length=8
seq_position=6
pitch_keycenter=67

<region>
sample=..\Samples\babyblue\reg\babyblue_g4_f_rr1.wav
lokey=63
hikey=63
seq_length=8
seq_position=5
pitch_keycenter=67

<region>
sample=..\Samples\babyblue\reg\babyblue_g4_f_rr4.wav
lokey=63
hikey=63
seq_length=8
seq_position=4
pitch_keycenter=67

<region>
sample=..\Samples\babyblue\reg\babyblue_g4_f_rr3.wav
lokey=63
hikey=63
seq_length=8
seq_position=3
pitch_keycenter=67

<region>
sample=..\Samples\babyblue\reg\babyblue_g4_f_rr2.wav
lokey=63
hikey=63
seq_length=8
seq_position=2
pitch_keycenter=67

<region>
sample=..\Samples\babyblue\reg\babyblue_g4_f_rr1.wav
lokey=63
hikey=63
seq_length=8
pitch_keycenter=67

<region>
sample=..\Samples\babyblue\reg\babyblue_ab4_f_rr4.wav
lokey=64
hikey=64
seq_length=8
seq_position=8
pitch_keycenter=68

<region>
sample=..\Samples\babyblue\reg\babyblue_ab4_f_rr3.wav
lokey=64
hikey=64
seq_length=8
seq_position=7
pitch_keycenter=68

<region>
sample=..\Samples\babyblue\reg\babyblue_ab4_f_rr2.wav
lokey=64
hikey=64
seq_length=8
seq_position=6
pitch_keycenter=68

<region>
sample=..\Samples\babyblue\reg\babyblue_ab4_f_rr1.wav
lokey=64
hikey=64
seq_length=8
seq_position=5
pitch_keycenter=68

<region>
sample=..\Samples\babyblue\reg\babyblue_ab4_f_rr4.wav
lokey=64
hikey=64
seq_length=8
seq_position=4
pitch_keycenter=68

<region>
sample=..\Samples\babyblue\reg\babyblue_ab4_f_rr3.wav
lokey=64
hikey=64
seq_length=8
seq_position=3
pitch_keycenter=68

<region>
sample=..\Samples\babyblue\reg\babyblue_ab4_f_rr2.wav
lokey=64
hikey=64
seq_length=8
seq_position=2
pitch_keycenter=68

<region>
sample=..\Samples\babyblue\reg\babyblue_ab4_f_rr1.wav
lokey=64
hikey=64
seq_length=8
pitch_keycenter=68

<region>
sample=..\Samples\babyblue\reg\babyblue_a4_f_rr4.wav
lokey=65
hikey=65
seq_length=8
seq_position=8
pitch_keycenter=69

<region>
sample=..\Samples\babyblue\reg\babyblue_a4_f_rr3.wav
lokey=65
hikey=65
seq_length=8
seq_position=7
pitch_keycenter=69

<region>
sample=..\Samples\babyblue\reg\babyblue_a4_f_rr2.wav
lokey=65
hikey=65
seq_length=8
seq_position=6
pitch_keycenter=69

<region>
sample=..\Samples\babyblue\reg\babyblue_a4_f_rr1.wav
lokey=65
hikey=65
seq_length=8
seq_position=5
pitch_keycenter=69

<region>
sample=..\Samples\babyblue\reg\babyblue_a4_f_rr4.wav
lokey=65
hikey=65
seq_length=8
seq_position=4
pitch_keycenter=69

<region>
sample=..\Samples\babyblue\reg\babyblue_a4_f_rr3.wav
lokey=65
hikey=65
seq_length=8
seq_position=3
pitch_keycenter=69

<region>
sample=..\Samples\babyblue\reg\babyblue_a4_f_rr2.wav
lokey=65
hikey=65
seq_length=8
seq_position=2
pitch_keycenter=69

<region>
sample=..\Samples\babyblue\reg\babyblue_a4_f_rr1.wav
lokey=65
hikey=65
seq_length=8
pitch_keycenter=69

<region>
sample=..\Samples\babyblue\reg\babyblue_bb4_f_rr4.wav
lokey=66
hikey=66
seq_length=8
seq_position=8
pitch_keycenter=70

<region>
sample=..\Samples\babyblue\reg\babyblue_bb4_f_rr3.wav
lokey=66
hikey=66
seq_length=8
seq_position=7
pitch_keycenter=70

<region>
sample=..\Samples\babyblue\reg\babyblue_bb4_f_rr2.wav
lokey=66
hikey=66
seq_length=8
seq_position=6
pitch_keycenter=70

<region>
sample=..\Samples\babyblue\reg\babyblue_bb4_f_rr1.wav
lokey=66
hikey=66
seq_length=8
seq_position=5
pitch_keycenter=70

<region>
sample=..\Samples\babyblue\reg\babyblue_bb4_f_rr4.wav
lokey=66
hikey=66
seq_length=8
seq_position=4
pitch_keycenter=70

<region>
sample=..\Samples\babyblue\reg\babyblue_bb4_f_rr3.wav
lokey=66
hikey=66
seq_length=8
seq_position=3
pitch_keycenter=70

<region>
sample=..\Samples\babyblue\reg\babyblue_bb4_f_rr2.wav
lokey=66
hikey=66
seq_length=8
seq_position=2
pitch_keycenter=70

<region>
sample=..\Samples\babyblue\reg\babyblue_bb4_f_rr1.wav
lokey=66
hikey=66
seq_length=8
pitch_keycenter=70

<region>
sample=..\Samples\babyblue\reg\babyblue_b4_f_rr4.wav
lokey=67
hikey=67
seq_length=8
seq_position=8
pitch_keycenter=71

<region>
sample=..\Samples\babyblue\reg\babyblue_b4_f_rr3.wav
lokey=67
hikey=67
seq_length=8
seq_position=7
pitch_keycenter=71

<region>
sample=..\Samples\babyblue\reg\babyblue_b4_f_rr2.wav
lokey=67
hikey=67
seq_length=8
seq_position=6
pitch_keycenter=71

<region>
sample=..\Samples\babyblue\reg\babyblue_b4_f_rr1.wav
lokey=67
hikey=67
seq_length=8
seq_position=5
pitch_keycenter=71

<region>
sample=..\Samples\babyblue\reg\babyblue_b4_f_rr4.wav
lokey=67
hikey=67
seq_length=8
seq_position=4
pitch_keycenter=71

<region>
sample=..\Samples\babyblue\reg\babyblue_b4_f_rr3.wav
lokey=67
hikey=67
seq_length=8
seq_position=3
pitch_keycenter=71

<region>
sample=..\Samples\babyblue\reg\babyblue_b4_f_rr2.wav
lokey=67
hikey=67
seq_length=8
seq_position=2
pitch_keycenter=71

<region>
sample=..\Samples\babyblue\reg\babyblue_b4_f_rr1.wav
lokey=67
hikey=67
seq_length=8
pitch_keycenter=71

<region>
sample=..\Samples\babyblue\reg\babyblue_c5_f_rr4.wav
lokey=68
hikey=68
seq_length=8
seq_position=8
pitch_keycenter=72

<region>
sample=..\Samples\babyblue\reg\babyblue_c5_f_rr3.wav
lokey=68
hikey=68
seq_length=8
seq_position=7
pitch_keycenter=72

<region>
sample=..\Samples\babyblue\reg\babyblue_c5_f_rr2.wav
lokey=68
hikey=68
seq_length=8
seq_position=6
pitch_keycenter=72

<region>
sample=..\Samples\babyblue\reg\babyblue_c5_f_rr1.wav
lokey=68
hikey=68
seq_length=8
seq_position=5
pitch_keycenter=72

<region>
sample=..\Samples\babyblue\reg\babyblue_c5_f_rr4.wav
lokey=68
hikey=68
seq_length=8
seq_position=4
pitch_keycenter=72

<region>
sample=..\Samples\babyblue\reg\babyblue_c5_f_rr3.wav
lokey=68
hikey=68
seq_length=8
seq_position=3
pitch_keycenter=72

<region>
sample=..\Samples\babyblue\reg\babyblue_c5_f_rr2.wav
lokey=68
hikey=68
seq_length=8
seq_position=2
pitch_keycenter=72

<region>
sample=..\Samples\babyblue\reg\babyblue_c5_f_rr1.wav
lokey=68
hikey=68
seq_length=8
pitch_keycenter=72

<region>
sample=..\Samples\babyblue\reg\babyblue_db5_f_rr4.wav
lokey=69
hikey=69
seq_length=8
seq_position=8
pitch_keycenter=73

<region>
sample=..\Samples\babyblue\reg\babyblue_db5_f_rr3.wav
lokey=69
hikey=69
seq_length=8
seq_position=7
pitch_keycenter=73

<region>
sample=..\Samples\babyblue\reg\babyblue_db5_f_rr2.wav
lokey=69
hikey=69
seq_length=8
seq_position=6
pitch_keycenter=73

<region>
sample=..\Samples\babyblue\reg\babyblue_db5_f_rr1.wav
lokey=69
hikey=69
seq_length=8
seq_position=5
pitch_keycenter=73

<region>
sample=..\Samples\babyblue\reg\babyblue_db5_f_rr4.wav
lokey=69
hikey=69
seq_length=8
seq_position=4
pitch_keycenter=73

<region>
sample=..\Samples\babyblue\reg\babyblue_db5_f_rr3.wav
lokey=69
hikey=69
seq_length=8
seq_position=3
pitch_keycenter=73

<region>
sample=..\Samples\babyblue\reg\babyblue_db5_f_rr2.wav
lokey=69
hikey=69
seq_length=8
seq_position=2
pitch_keycenter=73

<region>
sample=..\Samples\babyblue\reg\babyblue_db5_f_rr1.wav
lokey=69
hikey=69
seq_length=8
pitch_keycenter=73

<region>
sample=..\Samples\babyblue\reg\babyblue_d5_f_rr4.wav
lokey=70
hikey=70
seq_length=8
seq_position=8
pitch_keycenter=74

<region>
sample=..\Samples\babyblue\reg\babyblue_d5_f_rr3.wav
lokey=70
hikey=70
seq_length=8
seq_position=7
pitch_keycenter=74

<region>
sample=..\Samples\babyblue\reg\babyblue_d5_f_rr2.wav
lokey=70
hikey=70
seq_length=8
seq_position=6
pitch_keycenter=74

<region>
sample=..\Samples\babyblue\reg\babyblue_d5_f_rr1.wav
lokey=70
hikey=70
seq_length=8
seq_position=5
pitch_keycenter=74

<region>
sample=..\Samples\babyblue\reg\babyblue_d5_f_rr4.wav
lokey=70
hikey=70
seq_length=8
seq_position=4
pitch_keycenter=74

<region>
sample=..\Samples\babyblue\reg\babyblue_d5_f_rr3.wav
lokey=70
hikey=70
seq_length=8
seq_position=3
pitch_keycenter=74

<region>
sample=..\Samples\babyblue\reg\babyblue_d5_f_rr2.wav
lokey=70
hikey=70
seq_length=8
seq_position=2
pitch_keycenter=74

<region>
sample=..\Samples\babyblue\reg\babyblue_d5_f_rr1.wav
lokey=70
hikey=70
seq_length=8
pitch_keycenter=74

<region>
sample=..\Samples\babyblue\reg\babyblue_eb5_f_rr4.wav
lokey=71
hikey=71
seq_length=8
seq_position=8
pitch_keycenter=75

<region>
sample=..\Samples\babyblue\reg\babyblue_eb5_f_rr3.wav
lokey=71
hikey=71
seq_length=8
seq_position=7
pitch_keycenter=75

<region>
sample=..\Samples\babyblue\reg\babyblue_eb5_f_rr2.wav
lokey=71
hikey=71
seq_length=8
seq_position=6
pitch_keycenter=75

<region>
sample=..\Samples\babyblue\reg\babyblue_eb5_f_rr1.wav
lokey=71
hikey=71
seq_length=8
seq_position=5
pitch_keycenter=75

<region>
sample=..\Samples\babyblue\reg\babyblue_eb5_f_rr4.wav
lokey=71
hikey=71
seq_length=8
seq_position=4
pitch_keycenter=75

<region>
sample=..\Samples\babyblue\reg\babyblue_eb5_f_rr3.wav
lokey=71
hikey=71
seq_length=8
seq_position=3
pitch_keycenter=75

<region>
sample=..\Samples\babyblue\reg\babyblue_eb5_f_rr2.wav
lokey=71
hikey=71
seq_length=8
seq_position=2
pitch_keycenter=75

<region>
sample=..\Samples\babyblue\reg\babyblue_eb5_f_rr1.wav
lokey=71
hikey=71
seq_length=8
pitch_keycenter=75

<region>
sample=..\Samples\babyblue\reg\babyblue_bb4_f_rr4.wav
lokey=72
hikey=72
seq_length=8
seq_position=8
pitch_keycenter=70

<region>
sample=..\Samples\babyblue\reg\babyblue_bb4_f_rr3.wav
lokey=72
hikey=72
seq_length=8
seq_position=7
pitch_keycenter=70

<region>
sample=..\Samples\babyblue\reg\babyblue_bb4_f_rr2.wav
lokey=72
hikey=72
seq_length=8
seq_position=6
pitch_keycenter=70

<region>
sample=..\Samples\babyblue\reg\babyblue_bb4_f_rr1.wav
lokey=72
hikey=72
seq_length=8
seq_position=5
pitch_keycenter=70

<region>
sample=..\Samples\babyblue\reg\babyblue_bb4_f_rr4.wav
lokey=72
hikey=72
seq_length=8
seq_position=4
pitch_keycenter=70

<region>
sample=..\Samples\babyblue\reg\babyblue_bb4_f_rr3.wav
lokey=72
hikey=72
seq_length=8
seq_position=3
pitch_keycenter=70

<region>
sample=..\Samples\babyblue\reg\babyblue_bb4_f_rr2.wav
lokey=72
hikey=72
seq_length=8
seq_position=2
pitch_keycenter=70

<region>
sample=..\Samples\babyblue\reg\babyblue_bb4_f_rr1.wav
lokey=72
hikey=72
seq_length=8
pitch_keycenter=70

<region>
sample=..\Samples\babyblue\reg\babyblue_b4_f_rr4.wav
lokey=73
hikey=73
seq_length=8
seq_position=8
pitch_keycenter=71

<region>
sample=..\Samples\babyblue\reg\babyblue_b4_f_rr3.wav
lokey=73
hikey=73
seq_length=8
seq_position=7
pitch_keycenter=71

<region>
sample=..\Samples\babyblue\reg\babyblue_b4_f_rr2.wav
lokey=73
hikey=73
seq_length=8
seq_position=6
pitch_keycenter=71

<region>
sample=..\Samples\babyblue\reg\babyblue_b4_f_rr1.wav
lokey=73
hikey=73
seq_length=8
seq_position=5
pitch_keycenter=71

<region>
sample=..\Samples\babyblue\reg\babyblue_b4_f_rr4.wav
lokey=73
hikey=73
seq_length=8
seq_position=4
pitch_keycenter=71

<region>
sample=..\Samples\babyblue\reg\babyblue_b4_f_rr3.wav
lokey=73
hikey=73
seq_length=8
seq_position=3
pitch_keycenter=71

<region>
sample=..\Samples\babyblue\reg\babyblue_b4_f_rr2.wav
lokey=73
hikey=73
seq_length=8
seq_position=2
pitch_keycenter=71

<region>
sample=..\Samples\babyblue\reg\babyblue_b4_f_rr1.wav
lokey=73
hikey=73
seq_length=8
pitch_keycenter=71

<region>
sample=..\Samples\babyblue\reg\babyblue_c5_f_rr4.wav
lokey=74
hikey=74
seq_length=8
seq_position=8
pitch_keycenter=72

<region>
sample=..\Samples\babyblue\reg\babyblue_c5_f_rr3.wav
lokey=74
hikey=74
seq_length=8
seq_position=7
pitch_keycenter=72

<region>
sample=..\Samples\babyblue\reg\babyblue_c5_f_rr2.wav
lokey=74
hikey=74
seq_length=8
seq_position=6
pitch_keycenter=72

<region>
sample=..\Samples\babyblue\reg\babyblue_c5_f_rr1.wav
lokey=74
hikey=74
seq_length=8
seq_position=5
pitch_keycenter=72

<region>
sample=..\Samples\babyblue\reg\babyblue_c5_f_rr4.wav
lokey=74
hikey=74
seq_length=8
seq_position=4
pitch_keycenter=72

<region>
sample=..\Samples\babyblue\reg\babyblue_c5_f_rr3.wav
lokey=74
hikey=74
seq_length=8
seq_position=3
pitch_keycenter=72

<region>
sample=..\Samples\babyblue\reg\babyblue_c5_f_rr2.wav
lokey=74
hikey=74
seq_length=8
seq_position=2
pitch_keycenter=72

<region>
sample=..\Samples\babyblue\reg\babyblue_c5_f_rr1.wav
lokey=74
hikey=74
seq_length=8
pitch_keycenter=72

<region>
sample=..\Samples\babyblue\reg\babyblue_db5_f_rr4.wav
lokey=75
hikey=75
seq_length=8
seq_position=8
pitch_keycenter=73

<region>
sample=..\Samples\babyblue\reg\babyblue_db5_f_rr3.wav
lokey=75
hikey=75
seq_length=8
seq_position=7
pitch_keycenter=73

<region>
sample=..\Samples\babyblue\reg\babyblue_db5_f_rr2.wav
lokey=75
hikey=75
seq_length=8
seq_position=6
pitch_keycenter=73

<region>
sample=..\Samples\babyblue\reg\babyblue_db5_f_rr1.wav
lokey=75
hikey=75
seq_length=8
seq_position=5
pitch_keycenter=73

<region>
sample=..\Samples\babyblue\reg\babyblue_db5_f_rr4.wav
lokey=75
hikey=75
seq_length=8
seq_position=4
pitch_keycenter=73

<region>
sample=..\Samples\babyblue\reg\babyblue_db5_f_rr3.wav
lokey=75
hikey=75
seq_length=8
seq_position=3
pitch_keycenter=73

<region>
sample=..\Samples\babyblue\reg\babyblue_db5_f_rr2.wav
lokey=75
hikey=75
seq_length=8
seq_position=2
pitch_keycenter=73

<region>
sample=..\Samples\babyblue\reg\babyblue_db5_f_rr1.wav
lokey=75
hikey=75
seq_length=8
pitch_keycenter=73
